# This file uses centimeters as units for non-parametric coordinates.

mtllib Curved roof.mtl
g default
v -1008.701660 1497.505377 -977.199829
v -1008.701660 579.590794 120.085091
v 1008.701660 579.590794 120.085091
v 1008.701660 1497.505377 -977.199829
v -1008.701660 1278.126105 -977.199829
v 1008.701660 1278.126105 -977.199829
v -1008.701660 579.607743 -99.294174
v 1008.701660 579.607743 -99.294174
v 1008.701660 1497.505377 -809.232300
v -1008.701660 1497.505377 -809.232300
v -1008.701660 1278.126105 -809.232300
v 1008.701660 1278.126105 -809.232300
v 1008.701660 1497.504645 -641.111938
v -1008.701660 1497.504645 -641.111938
v -1008.701660 1278.125617 -641.417542
v 1008.701660 1278.125617 -641.417542
v 1008.701660 1471.660468 -446.723877
v -1008.701660 1471.660468 -446.723877
v -1008.701660 1259.822394 -503.749298
v 1008.701660 1259.822394 -503.749298
v 1008.701660 1396.427619 -265.630890
v -1008.701660 1396.427619 -265.630890
v -1008.701660 1206.541449 -375.496765
v 1008.701660 1206.541449 -375.496765
v 1008.701660 1276.924201 -110.152382
v -1008.701660 1276.924201 -110.152382
v -1008.701660 1121.907477 -265.384766
v 1008.701660 1121.907477 -265.384766
v 1008.701660 1121.279669 9.134771
v -1008.701660 1121.279669 9.134771
v -1008.701660 1011.677924 -180.903961
v 1008.701660 1011.677924 -180.903961
v 1008.701660 940.082190 84.115730
v -1008.701660 940.082190 84.115730
v -1008.701660 883.351386 -127.801430
v 1008.701660 883.351386 -127.801430
v 1008.701660 745.658392 109.689636
v -1008.701660 745.658392 109.689636
v -1008.701660 745.657782 -109.689636
v 1008.701660 745.657782 -109.689636
vt 0.072245 0.033198
vt 0.628365 0.033111
vt 0.628437 0.495966
vt 0.844228 0.616279
vt 0.649546 0.945175
vt 0.041687 0.942266
vt 0.043613 0.539888
vt 0.844309 0.012474
vt 0.909969 0.012483
vt 0.909888 0.616287
vt 0.844228 0.616279
vt 0.540607 0.563779
vt 0.909888 0.616288
vt 0.131244 0.606994
vt 0.185574 0.563774
vt 0.909969 0.012483
vt 0.844309 0.012474
vt 0.516943 0.750259
vt 0.565636 0.788927
vt 0.628429 0.449664
vt 0.072310 0.449750
vt 0.197572 0.828832
vt 0.043370 0.590498
vt 0.236244 0.780142
vt 0.651230 0.593408
vt 0.499012 0.596874
vt 0.628422 0.403319
vt 0.500603 0.684326
vt 0.072303 0.403406
vt 0.234885 0.858468
vt 0.043128 0.641062
vt 0.273489 0.809725
vt 0.650988 0.643972
vt 0.457454 0.629939
vt 0.628414 0.349263
vt 0.447373 0.716226
vt 0.072295 0.349349
vt 0.282584 0.886999
vt 0.042928 0.682908
vt 0.307270 0.829930
vt 0.650788 0.685817
vt 0.419756 0.652531
vt 0.628405 0.295206
vt 0.387704 0.733276
vt 0.072286 0.295293
vt 0.336038 0.902224
vt 0.042728 0.724753
vt 0.345127 0.840713
vt 0.650588 0.727663
vt 0.377498 0.664606
vt 0.628397 0.241149
vt 0.325656 0.734317
vt 0.072278 0.241236
vt 0.391611 0.903109
vt 0.042527 0.766599
vt 0.384485 0.841340
vt 0.650387 0.769508
vt 0.333554 0.665343
vt 0.628389 0.187093
vt 0.265449 0.719277
vt 0.072269 0.187179
vt 0.445523 0.889593
vt 0.042327 0.808444
vt 0.422666 0.831767
vt 0.650187 0.811354
vt 0.290915 0.654692
vt 0.628380 0.133036
vt 0.211179 0.689179
vt 0.072261 0.133123
vt 0.494106 0.862595
vt 0.042127 0.850290
vt 0.457073 0.812647
vt 0.649987 0.853200
vt 0.252480 0.633376
vt 0.628372 0.078979
vt 0.166539 0.646071
vt 0.072253 0.079066
vt 0.534054 0.823952
vt 0.041927 0.892135
vt 0.485365 0.785280
vt 0.649786 0.895045
vt 0.220865 0.602846
vt 0.198965 0.750533
vt 0.072317 0.496052
vt 0.160293 0.799223
vt 0.583832 0.618106
vt 0.651472 0.542798
vt 0.542236 0.651201
vn 0.000000 0.000000 1.000000
vn 0.000000 0.000000 1.000000
vn 0.000000 0.099286 0.995059
vn 0.000000 0.099286 0.995059
vn 0.000000 -0.093442 -0.995625
vn 0.000000 0.000000 -1.000000
vn 0.000000 0.000000 -1.000000
vn 0.000000 -0.093442 -0.995625
vn 0.000000 -1.000000 0.000000
vn 0.000000 -1.000000 0.000000
vn 0.000000 -1.000000 0.000000
vn 0.000000 -1.000000 0.000000
vn 1.000000 0.000000 0.000000
vn 1.000000 0.000000 0.000000
vn 1.000000 0.000000 0.000000
vn 1.000000 0.000000 0.000000
vn -1.000000 0.000000 0.000000
vn -1.000000 0.000000 0.000000
vn -1.000000 0.000000 0.000000
vn -1.000000 0.000000 0.000000
vn -1.000000 0.000000 0.000000
vn -1.000000 0.000000 0.000000
vn -1.000000 0.000000 0.000000
vn -1.000000 0.000000 0.000000
vn 0.000000 0.000000 -1.000000
vn 0.000000 -1.000000 -0.000001
vn 0.000000 -1.000000 -0.000001
vn 0.000000 0.000000 -1.000000
vn 1.000000 0.000000 0.000000
vn 1.000000 0.000000 0.000000
vn 1.000000 0.000000 0.000000
vn 1.000000 0.000000 0.000000
vn 0.000000 0.997468 0.071114
vn 0.000000 0.997468 0.071114
vn 0.000000 1.000000 0.000002
vn 0.000000 1.000000 0.000002
vn -1.000000 0.000000 0.000000
vn -1.000000 0.000000 0.000000
vn -1.000000 0.000000 0.000000
vn -1.000000 0.000000 0.000000
vn 0.000000 -0.998210 -0.059810
vn 0.000000 -0.998210 -0.059810
vn 1.000000 0.000000 0.000000
vn 1.000000 0.000000 0.000000
vn 1.000000 0.000000 0.000000
vn 1.000000 0.000000 0.000000
vn 0.000000 0.965625 0.259940
vn 0.000000 0.965625 0.259940
vn -1.000000 0.000000 0.000000
vn -1.000000 0.000000 0.000000
vn -1.000000 0.000000 0.000000
vn -1.000000 0.000000 0.000000
vn 0.000000 -0.965625 -0.259940
vn 0.000000 -0.965625 -0.259940
vn 1.000000 0.000000 0.000000
vn 1.000000 0.000000 0.000000
vn 1.000000 0.000000 0.000000
vn 1.000000 0.000000 0.000000
vn 0.000000 0.865561 0.500803
vn 0.000000 0.865561 0.500803
vn -1.000000 0.000000 0.000000
vn -1.000000 0.000000 0.000000
vn -1.000000 0.000000 0.000000
vn -1.000000 0.000000 0.000000
vn 0.000000 -0.865561 -0.500803
vn 0.000000 -0.865561 -0.500803
vn 1.000000 -0.000000 0.000000
vn 1.000000 -0.000000 0.000000
vn 1.000000 -0.000000 0.000000
vn 1.000000 -0.000000 0.000000
vn 0.000000 0.706615 0.707598
vn 0.000000 0.706615 0.707598
vn -1.000000 0.000000 0.000000
vn -1.000000 0.000000 0.000000
vn -1.000000 0.000000 0.000000
vn -1.000000 0.000000 0.000000
vn 0.000000 -0.706615 -0.707598
vn 0.000000 -0.706615 -0.707598
vn 1.000000 0.000000 0.000000
vn 1.000000 0.000000 0.000000
vn 1.000000 0.000000 0.000000
vn 1.000000 0.000000 0.000000
vn 0.000000 0.499599 0.866257
vn 0.000000 0.499599 0.866257
vn -1.000000 -0.000000 0.000000
vn -1.000000 -0.000000 0.000000
vn -1.000000 -0.000000 0.000000
vn -1.000000 -0.000000 0.000000
vn 0.000000 -0.499599 -0.866257
vn 0.000000 -0.499599 -0.866257
vn 1.000000 -0.000000 0.000000
vn 1.000000 -0.000000 0.000000
vn 1.000000 -0.000000 0.000000
vn 1.000000 -0.000000 0.000000
vn 0.000000 0.258597 0.965985
vn 0.000000 0.258597 0.965985
vn -1.000000 0.000000 0.000000
vn -1.000000 0.000000 0.000000
vn -1.000000 0.000000 0.000000
vn -1.000000 0.000000 0.000000
vn 0.000000 -0.258597 -0.965985
vn 0.000000 -0.258597 -0.965985
vn 1.000000 0.000001 0.000000
vn 1.000000 0.000001 0.000000
vn 1.000000 0.000001 0.000000
vn 1.000000 0.000001 0.000000
vn -1.000000 -0.000000 0.000000
vn -1.000000 -0.000000 0.000000
vn -1.000000 -0.000000 0.000000
vn -1.000000 -0.000000 0.000000
vn 1.000000 0.000000 0.000000
vn 1.000000 0.000000 0.000000
vn 1.000000 0.000000 0.000000
vn 1.000000 0.000000 0.000000
vn 0.000000 1.000000 0.000000
vn 0.000000 1.000000 0.000000
vn 0.000000 0.000000 -1.000000
vn 0.000000 0.000000 -1.000000
vn 0.000000 0.000000 -1.000000
vn 0.000000 0.000000 -1.000000
s 1
g Full_Wall:pCube1
usemtl initialShadingGroup
f 2/1/1 3/2/2 37/75/3 38/77/4
s 2
f 40/81/5 8/5/6 7/6/7 39/79/8
s off
f 8/8/9 3/9/10 2/10/11 7/11/12
f 40/82/13 37/76/14 3/14/15 8/15/16
f 38/78/17 39/80/18 7/18/19 2/19/20
f 1/85/21 5/83/22 11/24/23 10/22/24
s 2
f 6/87/25 12/25/26 11/23/27 5/7/28
s off
f 6/12/29 4/86/30 9/88/31 12/26/32
s 1
f 14/29/33 13/27/34 9/20/35 10/21/36
s off
f 10/22/37 11/24/38 15/32/39 14/30/40
s 2
f 12/25/26 16/33/41 15/31/42 11/23/27
s off
f 12/26/43 9/88/44 13/28/45 16/34/46
s 1
f 18/37/47 17/35/48 13/27/34 14/29/33
s off
f 14/30/49 15/32/50 19/40/51 18/38/52
s 2
f 16/33/41 20/41/53 19/39/54 15/31/42
s off
f 16/34/55 13/28/56 17/36/57 20/42/58
s 1
f 22/45/59 21/43/60 17/35/48 18/37/47
s off
f 18/38/61 19/40/62 23/48/63 22/46/64
s 2
f 20/41/53 24/49/65 23/47/66 19/39/54
s off
f 20/42/67 17/36/68 21/44/69 24/50/70
s 1
f 26/53/71 25/51/72 21/43/60 22/45/59
s off
f 22/46/73 23/48/74 27/56/75 26/54/76
s 2
f 24/49/65 28/57/77 27/55/78 23/47/66
s off
f 24/50/79 21/44/80 25/52/81 28/58/82
s 1
f 30/61/83 29/59/84 25/51/72 26/53/71
s off
f 26/54/85 27/56/86 31/64/87 30/62/88
s 2
f 28/57/77 32/65/89 31/63/90 27/55/78
s off
f 28/58/91 25/52/92 29/60/93 32/66/94
s 1
f 34/69/95 33/67/96 29/59/84 30/61/83
s off
f 30/62/97 31/64/98 35/72/99 34/70/100
s 2
f 32/65/89 36/73/101 35/71/102 31/63/90
s off
f 32/66/103 29/60/104 33/68/105 36/74/106
s 1
f 38/77/4 37/75/3 33/67/96 34/69/95
s off
f 34/70/107 35/72/108 39/80/109 38/78/110
s 2
f 36/73/101 40/81/5 39/79/8 35/71/102
s off
f 36/74/111 33/68/112 37/76/113 40/82/114
s 1
f 1/84/115 10/21/36 9/20/35 4/3/116
s off
f 1/16/117 4/13/118 6/4/119 5/17/120
