# This file uses centimeters as units for non-parametric coordinates.

mtllib Fixed Wall 2.mtl
g default
v -1008.701689 -10.197563 109.689633
v 1008.701689 -10.197563 109.689633
v -1008.701689 1501.510270 109.689633
v 1008.701689 1501.510270 109.689633
v -1008.701689 1501.510270 -109.689633
v 1008.701689 1501.510270 -109.689633
v -1008.701689 -10.197563 -109.689633
v 1008.701689 -10.197563 -109.689633
vt 0.925729 0.010040
vt 0.987633 0.010044
vt 0.987608 0.436610
vt 0.925705 0.436606
vt 0.920740 0.468674
vt 0.982643 0.468677
vt 0.982619 0.895243
vt 0.920715 0.895239
vt 0.768027 0.585967
vt 0.768136 0.016707
vt 0.830039 0.016719
vt 0.829931 0.585979
vt 0.848306 0.580507
vt 0.848415 0.011246
vt 0.910318 0.011258
vt 0.910210 0.580518
vt 0.026474 0.009588
vt 0.674296 0.009697
vt 0.674215 0.495132
vt 0.026392 0.495023
vt 0.022665 0.502982
vt 0.670487 0.503013
vt 0.670464 0.988448
vt 0.022641 0.988417
vn 0.000000 0.000000 1.000000
vn 0.000000 0.000000 1.000000
vn 0.000000 0.000000 1.000000
vn 0.000000 0.000000 1.000000
vn 0.000000 1.000000 0.000000
vn 0.000000 1.000000 0.000000
vn 0.000000 1.000000 0.000000
vn 0.000000 1.000000 0.000000
vn 0.000000 0.000000 -1.000000
vn 0.000000 0.000000 -1.000000
vn 0.000000 0.000000 -1.000000
vn 0.000000 0.000000 -1.000000
vn 0.000000 -1.000000 0.000000
vn 0.000000 -1.000000 0.000000
vn 0.000000 -1.000000 0.000000
vn 0.000000 -1.000000 0.000000
vn 1.000000 0.000000 0.000000
vn 1.000000 0.000000 0.000000
vn 1.000000 0.000000 0.000000
vn 1.000000 0.000000 0.000000
vn -1.000000 0.000000 0.000000
vn -1.000000 0.000000 0.000000
vn -1.000000 0.000000 0.000000
vn -1.000000 0.000000 0.000000
s off
g pCube1
usemtl initialShadingGroup
f 1/17/1 2/18/2 4/19/3 3/20/4
f 3/9/5 4/10/6 6/11/7 5/12/8
f 5/21/9 6/22/10 8/23/11 7/24/12
f 7/13/13 8/14/14 2/15/15 1/16/16
f 2/1/17 8/2/18 6/3/19 4/4/20
f 7/5/21 1/6/22 3/7/23 5/8/24
